<svg width="21" height="19" viewBox="0 0 21 19" fill="none" xmlns="http://www.w3.org/2000/svg">
<path d="M18.5 10.572L11 18L3.5 10.572C3.0053 10.0906 2.61564 9.51201 2.35554 8.87263C2.09545 8.23325 1.97056 7.54694 1.98873 6.85693C2.00691 6.16691 2.16776 5.48813 2.46115 4.86333C2.75455 4.23853 3.17413 3.68125 3.69348 3.22657C4.21283 2.7719 4.8207 2.42968 5.47881 2.22147C6.13691 2.01327 6.831 1.94358 7.51736 2.0168C8.20373 2.09001 8.8675 2.30455 9.46687 2.6469C10.0662 2.98925 10.5882 3.45199 11 4.00599C11.4135 3.45602 11.9361 2.99731 12.5351 2.6586C13.1341 2.31988 13.7965 2.10844 14.4809 2.03751C15.1654 1.96658 15.8571 2.03769 16.5128 2.24639C17.1685 2.45508 17.774 2.79687 18.2915 3.25036C18.8091 3.70385 19.2274 4.25928 19.5204 4.88189C19.8134 5.50449 19.9747 6.18088 19.9943 6.8687C20.0139 7.55653 19.8913 8.24099 19.6341 8.87924C19.377 9.5175 18.9909 10.0958 18.5 10.578" stroke="#0094CD" stroke-width="2" stroke-linecap="round" stroke-linejoin="round"/>
</svg>
