<svg width="10" height="10" viewBox="0 0 10 10" fill="none" xmlns="http://www.w3.org/2000/svg">
<path d="M8.93752 1.06875C8.87969 1.01081 8.81101 0.964842 8.73541 0.933478C8.6598 0.902115 8.57875 0.885971 8.49689 0.885971C8.41504 0.885971 8.33398 0.902115 8.25838 0.933478C8.18277 0.964842 8.11409 1.01081 8.05627 1.06875L5.00002 4.11875L1.94377 1.0625C1.8859 1.00463 1.81721 0.958735 1.74161 0.927419C1.666 0.896104 1.58497 0.879986 1.50314 0.879986C1.42131 0.879986 1.34028 0.896104 1.26468 0.927419C1.18908 0.958735 1.12038 1.00463 1.06252 1.0625C1.00465 1.12036 0.958754 1.18906 0.927438 1.26466C0.896123 1.34026 0.880005 1.42129 0.880005 1.50312C0.880005 1.58496 0.896123 1.66599 0.927438 1.74159C0.958754 1.81719 1.00465 1.88588 1.06252 1.94375L4.11877 5L1.06252 8.05625C1.00465 8.11411 0.958754 8.18281 0.927438 8.25841C0.896123 8.33401 0.880005 8.41504 0.880005 8.49687C0.880005 8.5787 0.896123 8.65973 0.927438 8.73534C0.958754 8.81094 1.00465 8.87963 1.06252 8.9375C1.12038 8.99536 1.18908 9.04126 1.26468 9.07258C1.34028 9.10389 1.42131 9.12001 1.50314 9.12001C1.58497 9.12001 1.666 9.10389 1.74161 9.07258C1.81721 9.04126 1.8859 8.99536 1.94377 8.9375L5.00002 5.88125L8.05627 8.9375C8.11413 8.99536 8.18282 9.04126 8.25843 9.07258C8.33403 9.10389 8.41506 9.12001 8.49689 9.12001C8.57872 9.12001 8.65975 9.10389 8.73536 9.07258C8.81096 9.04126 8.87965 8.99536 8.93752 8.9375C8.99538 8.87963 9.04128 8.81094 9.0726 8.73534C9.10391 8.65973 9.12003 8.5787 9.12003 8.49687C9.12003 8.41504 9.10391 8.33401 9.0726 8.25841C9.04128 8.18281 8.99538 8.11411 8.93752 8.05625L5.88127 5L8.93752 1.94375C9.17502 1.70625 9.17502 1.30625 8.93752 1.06875Z" fill="#0094CD"/>
</svg>
