<svg width="30" height="30" viewBox="0 0 30 30" fill="none" xmlns="http://www.w3.org/2000/svg">
<path d="M23.75 7.5H21.25C21.25 4 18.5 1.25 15 1.25C11.5 1.25 8.75 4 8.75 7.5H6.25C4.875 7.5 3.75 8.625 3.75 10V25C3.75 26.375 4.875 27.5 6.25 27.5H23.75C25.125 27.5 26.25 26.375 26.25 25V10C26.25 8.625 25.125 7.5 23.75 7.5ZM15 3.75C17.125 3.75 18.75 5.375 18.75 7.5H11.25C11.25 5.375 12.875 3.75 15 3.75ZM23.75 25H6.25V10H23.75V25ZM15 15C12.875 15 11.25 13.375 11.25 11.25H8.75C8.75 14.75 11.5 17.5 15 17.5C18.5 17.5 21.25 14.75 21.25 11.25H18.75C18.75 13.375 17.125 15 15 15Z" fill="#828282"/>
</svg>
