<svg width="34" height="34" viewBox="0 0 34 34" fill="none" xmlns="http://www.w3.org/2000/svg">
<g clip-path="url(#clip0_1304_1827)">
<path d="M15.6201 9.8653L9.89958 15.5858C8.77436 16.711 8.14222 18.2371 8.14222 19.8284C8.14222 21.4197 8.77436 22.9459 9.89958 24.0711C11.0248 25.1963 12.5509 25.8284 14.1422 25.8284C15.7335 25.8284 17.2596 25.1963 18.3849 24.0711L25.4559 17C26.2061 16.2499 26.6275 15.2324 26.6275 14.1716C26.6275 13.1107 26.2061 12.0933 25.4559 11.3431C24.7058 10.593 23.6884 10.1716 22.6275 10.1716C21.5666 10.1716 20.5492 10.593 19.7991 11.3431L13.3064 17.8358C13.1207 18.0215 12.9734 18.242 12.8729 18.4846C12.7724 18.7273 12.7206 18.9874 12.7206 19.25C12.7206 19.5127 12.7724 19.7727 12.8729 20.0154C12.9734 20.258 13.1207 20.4785 13.3064 20.6642C13.6815 21.0393 14.1902 21.25 14.7206 21.25C15.2511 21.25 15.7598 21.0393 16.1348 20.6642L21.2133 15.5858" stroke="#414141" stroke-width="2" stroke-linecap="round" stroke-linejoin="round"/>
</g>
<defs>
<clipPath id="clip0_1304_1827">
<rect width="24" height="24" fill="white" transform="translate(16.9707 0.0294418) rotate(45)"/>
</clipPath>
</defs>
</svg>
