<svg width="24" height="24" viewBox="0 0 24 24" fill="none" xmlns="http://www.w3.org/2000/svg">
<path d="M13.293 3.96001C13.7347 3.5112 14.2609 3.15428 14.8413 2.90983C15.4216 2.66538 16.0446 2.53824 16.6743 2.53574C17.304 2.53324 17.928 2.65543 18.5103 2.89526C19.0926 3.13509 19.6216 3.48782 20.0669 3.9331C20.5122 4.37838 20.8649 4.90741 21.1047 5.48968C21.3445 6.07195 21.4667 6.69594 21.4642 7.32566C21.4617 7.95538 21.3346 8.57837 21.0901 9.15872C20.8457 9.73906 20.4888 10.2653 20.04 10.707L17.01 13.737L15.595 12.324L18.625 9.29301C19.1448 8.77345 19.4369 8.06867 19.4371 7.33371C19.4373 6.59876 19.1455 5.89383 18.626 5.37401C18.1064 4.85418 17.4016 4.56204 16.6667 4.56185C15.9317 4.56167 15.2268 4.85345 14.707 5.37301L11.676 8.40401L10.262 6.99001L13.293 3.96001ZM15.413 10L9.99797 15.414L8.58397 14L13.998 8.58601L15.413 10ZM8.40297 11.676L5.37297 14.707C4.85315 15.2268 4.56111 15.9319 4.56111 16.667C4.56111 17.4021 4.85315 18.1072 5.37297 18.627C5.8928 19.1468 6.59783 19.4389 7.33297 19.4389C8.06811 19.4389 8.77315 19.1468 9.29297 18.627L12.323 15.596L13.737 17.01L10.707 20.04C9.81226 20.9348 8.59873 21.4376 7.33332 21.4377C6.06792 21.4378 4.85431 20.9352 3.95947 20.0405C3.06463 19.1458 2.56186 17.9323 2.56177 16.6669C2.56167 15.4015 3.06426 14.1878 3.95897 13.293L6.98897 10.263L8.40297 11.676Z" fill="#0094CD"/>
</svg>
