<svg width="80" height="80" viewBox="0 0 80 80" fill="none" xmlns="http://www.w3.org/2000/svg">
<path d="M7.5 7.5H27.5V2.5H2.5V27.5H7.5V7.5Z" fill="black"/>
<path d="M27.5 27.5V12.5H12.5V27.5H27.5ZM17.5 17.5H22.5V22.5H17.5V17.5ZM51.25 7.5H72.5V27.5H77.5V2.5H51.25V7.5Z" fill="black"/>
<path d="M67.5 27.5V12.5H52.5V27.5H67.5ZM57.5 17.5H62.5V22.5H57.5V17.5ZM27.5 72.5H7.5V52.5H2.5V77.5H27.5V72.5Z" fill="black"/>
<path d="M27.5 52.5H12.5V67.5H27.5V52.5ZM22.5 62.5H17.5V57.5H22.5V62.5ZM72.5 72.5H51.25V77.5H77.5V52.5H72.5V72.5Z" fill="black"/>
<path d="M42.5 47.5H62.5V57.5H67.5V42.5H42.5V47.5Z" fill="black"/>
<path d="M67.5 67.5V62.5H37.5V42.5H12.5V47.5H32.5V67.5H67.5ZM32.5 12.5H37.5V27.5H32.5V12.5Z" fill="black"/>
<path d="M12.5 37.5H47.5V12.5H42.5V32.5H12.5V37.5ZM52.5 32.5H67.5V37.5H52.5V32.5ZM52.5 52.5H57.5V57.5H52.5V52.5ZM42.5 52.5H47.5V57.5H42.5V52.5Z" fill="black"/>
</svg>
