<svg width="21" height="21" viewBox="0 0 21 21" fill="none" xmlns="http://www.w3.org/2000/svg">
<g clip-path="url(#clip0_871_1735)">
<path d="M20.2266 17.793L16.332 13.8984C16.1562 13.7227 15.918 13.625 15.668 13.625H15.0312C16.1094 12.2461 16.75 10.5117 16.75 8.625C16.75 4.13672 13.1133 0.5 8.625 0.5C4.13672 0.5 0.5 4.13672 0.5 8.625C0.5 13.1133 4.13672 16.75 8.625 16.75C10.5117 16.75 12.2461 16.1094 13.625 15.0312V15.668C13.625 15.918 13.7227 16.1562 13.8984 16.332L17.793 20.2266C18.1602 20.5938 18.7539 20.5938 19.1172 20.2266L20.2227 19.1211C20.5898 18.7539 20.5898 18.1602 20.2266 17.793ZM8.625 13.625C5.86328 13.625 3.625 11.3906 3.625 8.625C3.625 5.86328 5.85938 3.625 8.625 3.625C11.3867 3.625 13.625 5.85938 13.625 8.625C13.625 11.3867 11.3906 13.625 8.625 13.625Z" fill="#828282"/>
</g>
<defs>
<clipPath id="clip0_871_1735">
<rect width="20" height="20" fill="white" transform="translate(0.5 0.5)"/>
</clipPath>
</defs>
</svg>
